# xmcd
#
# Track frame offsets:
#	150
#	19120
#	36460
#	51298
#	69765
#	89869
#	107124
#	121925
#	135366
#	151473
#	165517
#	181468
#	198518
#
# Disc length: 2857 seconds
# Revision: 2
# Processed by: cddbd v1.5.2PL0 Copyright (c) Steve Scherf et al.
# Submitted via: dBpowerAMP V12.0
#
DISCID=b10b270d
DTITLE=Craig Morgan - Little Bit Of Life
DYEAR=2006
DGENRE=Country
TTITLE0=Little Bit Of Life
TTITLE1=International Harvester
TTITLE2=Tough
TTITLE3=I Am
TTITLE4=The Ballad Of Mr. Jenkins
TTITLE5=Nothin' Goin' Wrong Around Here
TTITLE6=Sweet Old Fashion Goodness
TTITLE7=I Guess You Had To Be There
TTITLE8=The Song
TTITLE9=My Kind Of Woman
TTITLE10=Look At  'Em Fly
TTITLE11=Sounds Like Love To Me
TTITLE12=If I Had My Way
EXTD=
EXTT0=
EXTT1=
EXTT2=
EXTT3=
EXTT4=
EXTT5=
EXTT6=
EXTT7=
EXTT8=
EXTT9=
EXTT10=
EXTT11=
EXTT12=
PLAYORDER=
